<svg xmlns="http://www.w3.org/2000/svg" viewBox="0 0 64 64" width="64" height="64" role="img" aria-label="무슨상연구소">
  <defs>
    <clipPath id="wvl-body"><path d="M25 12H39V26L55 52Q58.5 58.5 51 58.5H13Q5.5 58.5 9 52L25 26Z"/></clipPath>
    <linearGradient id="wvl-liq" x1="0" y1="0" x2="0" y2="1">
      <stop offset="0" stop-color="#82cbff"/>
      <stop offset="1" stop-color="#2a86ff"/>
    </linearGradient>
    <linearGradient id="wvl-glass" x1="0" y1="0" x2="1" y2="1">
      <stop offset="0" stop-color="#ffffff"/>
      <stop offset="1" stop-color="#e9f6ff"/>
    </linearGradient>
  </defs>
  <path d="M25 12H39V26L55 52Q58.5 58.5 51 58.5H13Q5.5 58.5 9 52L25 26Z" fill="url(#wvl-glass)"/>
  <g clip-path="url(#wvl-body)">
    <rect x="0" y="19" width="64" height="46" fill="url(#wvl-liq)"/>
    <path d="M0 19Q8 15 16 19T32 19T48 19T64 19V23H0Z" fill="#c6e8ff"/>
  </g>
  <rect x="20" y="6.500" width="24" height="8" rx="4" fill="#ffc93c"/>
  <path d="M25.500 37.500a6.500 6.500 0 1 1 10.400 5.200c-2.400 1.600-3.900 2.900-3.900 5.300" transform="translate(0 -4.500)" fill="none" stroke="#fff" stroke-width="6.400" stroke-linecap="round" stroke-linejoin="round"/>
  <path d="M32 47l1.500 3 3 1.500-3 1.500-1.500 3-1.500-3-3-1.500 3-1.500z" transform="translate(0 0.400)" fill="#ffe066"/>
  <path d="M48 1l2.300 6 6 2.300-6 2.300-2.300 6-2.300-6-6-2.300 6-2.300z" fill="#ffc93c"/>
</svg>
